HIERARCHY
ROOT hip
{
  OFFSET 0 0 0
  CHANNELS 6 Xposition Yposition Zposition Zrotation Yrotation Xrotation
  JOINT abdomen
  {
    OFFSET 0 20.6881 -0.73152
    CHANNELS 3 Zrotation Xrotation Yrotation
    JOINT chest
    {
      OFFSET 0 11.7043 -0.48768
      CHANNELS 3 Zrotation Xrotation Yrotation
      JOINT neck
      {
        OFFSET 0 22.1894 -2.19456
        CHANNELS 3 Zrotation Xrotation Yrotation
        JOINT head
        {
          OFFSET -0.24384 7.07133 1.2192
          CHANNELS 3 Zrotation Xrotation Yrotation
          JOINT leftEye
          {
            OFFSET 4.14528 8.04674 8.04672
            CHANNELS 3 Zrotation Xrotation Yrotation
            End Site
            {
              OFFSET 1 0 0
            }
          }
          JOINT rightEye
          {
            OFFSET -3.6576 8.04674 8.04672
            CHANNELS 3 Zrotation Xrotation Yrotation
            End Site
            {
              OFFSET 1 0 0
            }
          }
        }
      }
      JOINT rCollar
      {
        OFFSET -2.68224 19.2634 -4.8768
        CHANNELS 3 Zrotation Xrotation Yrotation
        JOINT rShldr
        {
          OFFSET -8.77824 -1.95073 1.46304
          CHANNELS 3 Zrotation Xrotation Yrotation
          JOINT rForeArm
          {
            OFFSET -28.1742 -1.7115 0.48768
            CHANNELS 3 Zrotation Xrotation Yrotation
            JOINT rHand
            {
              OFFSET -22.5879 0.773209 7.07136
              CHANNELS 3 Zrotation Xrotation Yrotation
              JOINT rThumb1
              {
                OFFSET -1.2192 -0.487915 3.41376
                CHANNELS 3 Zrotation Xrotation Yrotation
                JOINT rThumb2
                {
                  OFFSET -3.37035 -0.52449 3.41376
                  CHANNELS 3 Zrotation Xrotation Yrotation
                  End Site
                  {
                    OFFSET -1.78271 -1.18214 1.43049
                  }
                }
              }
              JOINT rIndex1
              {
                OFFSET -7.75947 0.938293 5.60832
                CHANNELS 3 Zrotation Xrotation Yrotation
                JOINT rIndex2
                {
                  OFFSET -2.54057 -0.884171 1.56538
                  CHANNELS 3 Zrotation Xrotation Yrotation
                  End Site
                  {
                    OFFSET -1.62519 -0.234802 1.16502
                  }
                }
              }
              JOINT rMid1
              {
                OFFSET -8.24714 1.18213 3.41376
                CHANNELS 3 Zrotation Xrotation Yrotation
                JOINT rMid2
                {
                  OFFSET -3.10165 -0.590103 1.0647
                  CHANNELS 3 Zrotation Xrotation Yrotation
                  End Site
                  {
                    OFFSET -2.48547 -0.328903 0.83742
                  }
                }
              }
              JOINT rRing1
              {
                OFFSET -8.82822 0.546677 1.51678
                CHANNELS 3 Zrotation Xrotation Yrotation
                JOINT rRing2
                {
                  OFFSET -2.60934 -0.819778 -0.0198488
                  CHANNELS 3 Zrotation Xrotation Yrotation
                  End Site
                  {
                    OFFSET -2.33842 -0.294052 0.168128
                  }
                }
              }
              JOINT rPinky1
              {
                OFFSET -8.27202 -0.0477905 -0.4584
                CHANNELS 3 Zrotation Xrotation Yrotation
                JOINT rPinky2
                {
                  OFFSET -1.82734 -0.647385 -0.700984
                  CHANNELS 3 Zrotation Xrotation Yrotation
                  End Site
                  {
                    OFFSET -1.69225 -0.51767 -0.607171
                  }
                }
              }
            }
          }
        }
      }
      JOINT lCollar
      {
        OFFSET 2.68224 19.2634 -4.8768
        CHANNELS 3 Zrotation Xrotation Yrotation
        JOINT lShldr
        {
          OFFSET 8.77824 -1.95073 1.46304
          CHANNELS 3 Zrotation Xrotation Yrotation
          JOINT lForeArm
          {
            OFFSET 28.1742 -1.7115 0.48768
            CHANNELS 3 Zrotation Xrotation Yrotation
            JOINT lHand
            {
              OFFSET 22.5879 0.773209 7.07136
              CHANNELS 3 Zrotation Xrotation Yrotation
              JOINT lThumb1
              {
                OFFSET 1.2192 -0.487915 3.41376
                CHANNELS 3 Zrotation Xrotation Yrotation
                JOINT lThumb2
                {
                  OFFSET 3.37035 -0.52449 3.41376
                  CHANNELS 3 Zrotation Xrotation Yrotation
                  End Site
                  {
                    OFFSET 1.78271 -1.18214 1.43049
                  }
                }
              }
              JOINT lIndex1
              {
                OFFSET 7.75947 0.938293 5.60832
                CHANNELS 3 Zrotation Xrotation Yrotation
                JOINT lIndex2
                {
                  OFFSET 2.54057 -0.884171 1.56538
                  CHANNELS 3 Zrotation Xrotation Yrotation
                  End Site
                  {
                    OFFSET 1.62519 -0.234802 1.16502
                  }
                }
              }
              JOINT lMid1
              {
                OFFSET 8.24714 1.18213 3.41376
                CHANNELS 3 Zrotation Xrotation Yrotation
                JOINT lMid2
                {
                  OFFSET 3.10165 -0.590103 1.0647
                  CHANNELS 3 Zrotation Xrotation Yrotation
                  End Site
                  {
                    OFFSET 2.48547 -0.328903 0.83742
                  }
                }
              }
              JOINT lRing1
              {
                OFFSET 8.82822 0.546677 1.51678
                CHANNELS 3 Zrotation Xrotation Yrotation
                JOINT lRing2
                {
                  OFFSET 2.60934 -0.819778 -0.0198488
                  CHANNELS 3 Zrotation Xrotation Yrotation
                  End Site
                  {
                    OFFSET 2.33842 -0.294052 0.168128
                  }
                }
              }
              JOINT lPinky1
              {
                OFFSET 8.27202 -0.0477905 -0.4584
                CHANNELS 3 Zrotation Xrotation Yrotation
                JOINT lPinky2
                {
                  OFFSET 1.82734 -0.647385 -0.700984
                  CHANNELS 3 Zrotation Xrotation Yrotation
                  End Site
                  {
                    OFFSET 1.69225 -0.51767 -0.607171
                  }
                }
              }
            }
          }
        }
      }
    }
  }
  JOINT rButtock
  {
    OFFSET -8.77824 4.35084 1.2192
    CHANNELS 3 Zrotation Xrotation Yrotation
    JOINT rThigh
    {
      OFFSET 0 -1.70687 -2.19456
      CHANNELS 3 Zrotation Xrotation Yrotation
      JOINT rShin
      {
        OFFSET 0 -36.8199 0.73152
        CHANNELS 3 Zrotation Xrotation Yrotation
        JOINT rFoot
        {
          OFFSET 0.73152 -45.1104 -5.12064
          CHANNELS 3 Zrotation Xrotation Yrotation
          End Site
          {
            OFFSET -1.1221 -3.69964 12.103
          }
        }
      }
    }
  }
  JOINT lButtock
  {
    OFFSET 8.77824 4.35084 1.2192
    CHANNELS 3 Zrotation Xrotation Yrotation
    JOINT lThigh
    {
      OFFSET 0 -1.70687 -2.19456
      CHANNELS 3 Zrotation Xrotation Yrotation
      JOINT lShin
      {
        OFFSET 0 -36.8199 0.73152
        CHANNELS 3 Zrotation Xrotation Yrotation
        JOINT lFoot
        {
          OFFSET -0.73152 -45.1104 -5.12064
          CHANNELS 3 Zrotation Xrotation Yrotation
          End Site
          {
            OFFSET 1.1221 -3.69964 12.103
          }
        }
      }
    }
  }
}
MOTION
Frames:	5
Frame Time:	0.00833333
32.9555 69.5766 -6.2305 -1.0904 -4.7534 35.7185 -0.453884 -12.5569 -2.07939 -0.789394 -8.9111 -0.360278 5.50235 -16.0525 2.37917 -1.24833 -8.33273 1.62363 -0.0 0.0 0.0 -0.0 0.0 0.0 5.8255e-14 -1.55363e-13 6.86731e-14 59.8466 24.5038 36.7683 -27.8044 -41.3413 86.3609 -0.335246 16.2506 2.34781 7.0749e-10 1.0789e-09 -4.84202e-11 1.21781e-09 1.83812e-09 -9.21609e-11 7.07495e-10 1.0789e-09 -4.8427e-11 7.73091 5.47488 0.417314 7.07495e-10 1.07892e-09 -4.84204e-11 2.90554 0.965183 0.102902 7.07497e-10 1.0789e-09 -4.84199e-11 10.2786 0.731801 0.0259123 7.07482e-10 1.07891e-09 -4.84137e-11 2.22167 -0.733487 -0.20892 5.80864e-14 -1.55364e-13 6.85209e-14 -58.7978 16.7381 -32.8569 27.3793 -42.9038 -89.3082 0.217785 -13.1763 1.88551 8.85304e-11 9.06081e-10 -3.26331e-10 1.62665e-10 1.54566e-09 -5.70711e-10 8.85217e-11 9.06078e-10 -3.26311e-10 -7.73091 5.47488 -0.417314 8.85311e-11 9.0608e-10 -3.26332e-10 -2.90554 0.965183 -0.102902 8.85268e-11 9.0608e-10 -3.2633e-10 -10.2786 0.731801 -0.0259123 8.85355e-11 9.0608e-10 -3.26341e-10 -2.22167 -0.733487 0.20892 -2.03217e-16 0.0 -3.88251e-19 13.1043 -83.2542 12.9456 -2.46983 73.0406 3.24129 -6.55923 -18.2353 -15.057 2.03217e-16 0.0 3.88251e-19 -26.1524 -84.4996 -22.1426 2.31023 72.1932 -3.01458 4.30334 -19.0854 9.71271
32.9647 69.5849 -6.22955 -1.0914 -4.7439 35.7224 -0.462518 -12.5431 -2.08461 -0.787102 -8.90491 -0.361128 5.51077 -16.0543 2.38809 -1.26967 -8.3788 1.63514 -0.0 0.0 0.0 -0.0 0.0 0.0 5.23733e-14 -4.69132e-13 9.38761e-14 59.8339 24.5189 36.787 -27.8055 -41.3366 86.3524 -0.336169 16.2722 2.3511 1.20374e-09 1.6248e-09 -1.1707e-10 2.06859e-09 2.76526e-09 -2.13912e-10 1.20375e-09 1.6248e-09 -1.17076e-10 7.73091 5.47488 0.417314 1.20375e-09 1.62482e-09 -1.1707e-10 2.90554 0.965183 0.102902 1.20375e-09 1.6248e-09 -1.1707e-10 10.2786 0.731801 0.0259123 1.20374e-09 1.6248e-09 -1.17063e-10 2.22167 -0.733487 -0.20892 5.21909e-14 -4.69133e-13 9.3727e-14 -58.8021 16.7338 -32.8613 27.3797 -42.9029 -89.3062 0.217557 -13.1696 1.8845 -3.18692e-11 1.86459e-09 -4.83845e-10 -3.75123e-11 3.18854e-09 -8.51778e-10 -3.18803e-11 1.86459e-09 -4.8382e-10 -7.73091 5.47488 -0.417314 -3.18688e-11 1.86459e-09 -4.83845e-10 -2.90554 0.965183 -0.102902 -3.18715e-11 1.86459e-09 -4.83843e-10 -10.2786 0.731801 -0.0259123 -3.18636e-11 1.86459e-09 -4.83855e-10 -2.22167 -0.733487 0.20892 -2.03217e-16 0.0 -3.88251e-19 12.9786 -83.2518 12.8221 -2.46708 73.0263 3.23827 -6.55664 -18.2323 -15.053 2.03217e-16 0.0 3.88251e-19 -26.1049 -84.4938 -22.0833 2.30662 72.1731 -3.01073 4.29403 -19.0888 9.68974
32.9738 69.5931 -6.22853 -1.0915 -4.7342 35.7267 -0.472632 -12.5304 -2.09214 -0.782863 -8.89755 -0.361942 5.52064 -16.0617 2.39787 -1.29275 -8.41594 1.64676 -0.0 0.0 0.0 -0.0 0.0 0.0 3.87125e-14 -6.0284e-13 9.74223e-14 59.8196 24.5318 36.807 -27.8066 -41.3316 86.3431 -0.336635 16.283 2.35276 1.49054e-09 1.78104e-09 -2.15608e-10 2.56048e-09 3.0252e-09 -3.86419e-10 1.49055e-09 1.78104e-09 -2.15617e-10 7.73091 5.47488 0.417314 1.49055e-09 1.78105e-09 -2.15611e-10 2.90554 0.965183 0.102902 1.49055e-09 1.78103e-09 -2.15611e-10 10.2786 0.731801 0.0259123 1.49054e-09 1.78104e-09 -2.15604e-10 2.22167 -0.733487 -0.20892 3.85582e-14 -6.0284e-13 9.7243e-14 -58.8039 16.7289 -32.8692 27.3804 -42.9009 -89.3016 0.217489 -13.1676 1.8842 -1.31991e-10 2.09252e-09 -3.13305e-10 -2.09781e-10 3.58303e-09 -5.6044e-10 -1.32002e-10 2.09252e-09 -3.13277e-10 -7.73091 5.47488 -0.417314 -1.3199e-10 2.09252e-09 -3.13305e-10 -2.90554 0.965183 -0.102902 -1.31993e-10 2.09252e-09 -3.13305e-10 -10.2786 0.731801 -0.0259123 -1.31984e-10 2.09252e-09 -3.13313e-10 -2.22167 -0.733487 0.20892 -2.03217e-16 0.0 -3.88251e-19 12.8547 -83.2527 12.6998 -2.4643 73.0125 3.23523 -6.554 -18.2286 -15.0492 2.03217e-16 0.0 3.88251e-19 -26.0952 -84.4899 -22.0628 2.30299 72.1527 -3.0069 4.28551 -19.0901 9.66887
32.9832 69.6011 -6.22813 -1.0911 -4.7226 35.7339 -0.483347 -12.5185 -2.10114 -0.77741 -8.88963 -0.362758 5.53126 -16.0705 2.40809 -1.31571 -8.44907 1.65865 -0.0 0.0 0.0 -0.0 0.0 0.0 1.81774e-14 -6.41479e-13 8.95525e-14 59.8047 24.5434 36.8273 -27.8078 -41.3262 86.333 -0.336836 16.2877 2.35348 1.68429e-09 1.71126e-09 -3.48453e-10 2.89297e-09 2.89704e-09 -6.17965e-10 1.6843e-09 1.71126e-09 -3.48466e-10 7.73091 5.47488 0.417314 1.6843e-09 1.71126e-09 -3.48462e-10 2.90554 0.965183 0.102902 1.6843e-09 1.71125e-09 -3.4846e-10 10.2786 0.731801 0.0259123 1.68429e-09 1.71125e-09 -3.48454e-10 2.22167 -0.733487 -0.20892 1.80772e-14 -6.41478e-13 8.93226e-14 -58.8036 16.7241 -32.8795 27.3815 -42.8979 -89.2944 0.217522 -13.1685 1.88435 -2.39349e-10 1.93144e-09 5.70484e-11 -3.98646e-10 3.31355e-09 7.9044e-11 -2.3936e-10 1.93144e-09 5.70777e-11 -7.73091 5.47488 -0.417314 -2.39349e-10 1.93144e-09 5.70484e-11 -2.90554 0.965183 -0.102902 -2.39351e-10 1.93144e-09 5.70477e-11 -10.2786 0.731801 -0.0259123 -2.39341e-10 1.93143e-09 5.70442e-11 -2.22167 -0.733487 0.20892 -2.03217e-16 0.0 -3.88251e-19 12.734 -83.2549 12.5805 -2.46145 72.9988 3.23213 -6.55143 -18.2244 -15.046 2.03217e-16 0.0 3.88251e-19 -26.1099 -84.4865 -22.0677 2.29933 72.1321 -3.00305 4.27771 -19.0901 9.64984
32.9928 69.6088 -6.22846 -1.0898 -4.7106 35.7446 -0.495062 -12.5073 -2.11062 -0.770711 -8.87922 -0.363483 5.54186 -16.0821 2.41841 -1.3388 -8.47755 1.67044 -0.0 0.0 0.0 -0.0 0.0 0.0 -1.38272e-15 -6.01895e-13 7.47252e-14 59.7893 24.5538 36.8484 -27.8092 -41.3204 86.3221 -0.336896 16.2892 2.35369 1.70664e-09 1.47956e-09 -4.43965e-10 2.9313e-09 2.49505e-09 -7.83599e-10 1.70664e-09 1.47956e-09 -4.43983e-10 7.73091 5.47488 0.417314 1.70664e-09 1.47956e-09 -4.43979e-10 2.90554 0.965183 0.102902 1.70664e-09 1.47956e-09 -4.43977e-10 10.2786 0.731801 0.0259123 1.70663e-09 1.47956e-09 -4.43971e-10 2.22167 -0.733487 -0.20892 -1.42831e-15 -6.01895e-13 7.4448e-14 -58.8021 16.7185 -32.8924 27.3828 -42.8947 -89.2868 0.217616 -13.1713 1.88476 -3.14683e-10 1.55142e-09 4.21765e-10 -5.33856e-10 2.66831e-09 7.1108e-10 -3.14693e-10 1.55142e-09 4.21794e-10 -7.73091 5.47488 -0.417314 -3.14683e-10 1.55142e-09 4.21764e-10 -2.90554 0.965183 -0.102902 -3.14686e-10 1.55142e-09 4.21762e-10 -10.2786 0.731801 -0.0259123 -3.14674e-10 1.55141e-09 4.21763e-10 -2.22167 -0.733487 0.20892 -2.03217e-16 0.0 -3.88251e-19 12.6223 -83.2576 12.4715 -2.45863 72.9853 3.22908 -6.54923 -18.219 -15.0442 2.03217e-16 0.0 3.88251e-19 -26.1466 -84.4825 -22.0958 2.29566 72.1114 -2.99923 4.27093 -19.0893 9.63342
